<svg width="175" height="31" viewBox="0 0 175 31" fill="none" xmlns="http://www.w3.org/2000/svg">
<mask id="path-1-outside-1_1046_97" maskUnits="userSpaceOnUse" x="0.685669" y="0.309387" width="174" height="31" fill="black">
<rect fill="white" x="0.685669" y="0.309387" width="174" height="31"/>
<path d="M20.6221 3.35626L19.645 10.7193C19.3077 10.6262 18.9704 10.5623 18.6331 10.5274C18.2957 10.4925 17.9584 10.475 17.6211 10.475C16.7603 10.475 15.9403 10.5913 15.1609 10.824C14.3816 11.045 13.6895 11.3881 13.0846 11.8534C12.4914 12.3187 12.0145 12.9003 11.6539 13.5982C11.3049 14.2961 11.1305 15.1162 11.1305 16.0583C11.1305 16.6632 11.2235 17.1866 11.4096 17.6287C11.6074 18.0707 11.8807 18.4371 12.2297 18.7279C12.5786 19.0187 12.9916 19.2339 13.4685 19.3734C13.9454 19.513 14.4688 19.5828 15.0388 19.5828C15.4692 19.5828 15.917 19.5363 16.3823 19.4432C16.8476 19.3502 17.307 19.2281 17.7607 19.0768C18.2143 18.9256 18.6563 18.7511 19.0867 18.5534C19.5171 18.3557 19.9126 18.1521 20.2732 17.9427L19.5753 26.1432C19.1216 26.3759 18.6272 26.5853 18.0922 26.7714C17.5687 26.9458 17.0279 27.1029 16.4695 27.2425C15.9112 27.3704 15.3529 27.4693 14.7945 27.5391C14.2362 27.6089 13.7011 27.6438 13.1893 27.6438C11.7121 27.6438 10.3337 27.3704 9.05416 26.8237C7.77464 26.277 6.66379 25.5267 5.72161 24.5729C4.77942 23.6191 4.03497 22.4966 3.48827 21.2055C2.9532 19.9027 2.68567 18.5011 2.68567 17.0005C2.68567 15.0115 2.97065 13.1387 3.54062 11.3823C4.11058 9.61425 4.94808 8.0672 6.05312 6.74116C7.15815 5.41512 8.52491 4.36824 10.1534 3.60053C11.7935 2.83282 13.6779 2.44897 15.8065 2.44897C16.6091 2.44897 17.4292 2.51295 18.2667 2.6409C19.1158 2.76885 19.9009 3.0073 20.6221 3.35626Z"/>
<path d="M43.7232 26.3875L35.069 27.5042L34.0221 23.5609H30.044L29.1716 27.5042L20.2732 26.6318L27.2174 3.39116L36.9185 2.90262L43.7232 26.3875ZM33.394 18.2219L32.068 12.15L30.7768 18.2219H33.394Z"/>
<path d="M63.8581 14.0344C63.8581 15.6629 63.6487 17.1343 63.2299 18.4487C62.8112 19.7515 62.2238 20.9147 61.4677 21.9383C60.7233 22.9503 59.8334 23.8227 58.7982 24.5555C57.7629 25.2883 56.6288 25.8932 55.3958 26.3701C54.1628 26.8353 52.8484 27.1843 51.4526 27.4169C50.0684 27.6379 48.6435 27.7484 47.1779 27.7484C46.6312 27.7484 46.0961 27.7368 45.5726 27.7136C45.0492 27.6787 44.5141 27.6321 43.9674 27.574L44.456 4.15887C45.7355 3.75175 47.0499 3.46677 48.3992 3.30392C49.7601 3.12944 51.1095 3.0422 52.4471 3.0422C54.1105 3.0422 55.6401 3.29229 57.0359 3.79246C58.4318 4.29263 59.6357 5.01381 60.6476 5.956C61.6596 6.89819 62.4448 8.04975 63.0031 9.41069C63.5731 10.7716 63.8581 12.3129 63.8581 14.0344ZM56.7044 15.1511C56.716 14.5229 56.6463 13.9181 56.495 13.3365C56.3555 12.7549 56.117 12.2431 55.7797 11.8011C55.454 11.3474 55.0352 10.9868 54.5234 10.7193C54.0116 10.4401 53.4009 10.2889 52.6914 10.2656L51.9935 21.0833C52.6914 20.9787 53.3253 20.7518 53.8953 20.4029C54.4653 20.0423 54.9538 19.6061 55.3609 19.0943C55.7797 18.5708 56.0996 17.9951 56.3206 17.3669C56.5532 16.7272 56.6812 16.07 56.7044 15.3953V15.1511Z"/>
<path d="M86.0518 26.3875L77.3977 27.5042L76.3508 23.5609H72.3727L71.5003 27.5042L62.6018 26.6318L69.5461 3.39116L79.2471 2.90262L86.0518 26.3875ZM75.7226 18.2219L74.3966 12.15L73.1055 18.2219H75.7226Z"/>
<path d="M106.728 21.6766C106.728 22.642 106.547 23.4737 106.187 24.1716C105.838 24.8695 105.367 25.4628 104.773 25.9513C104.18 26.4399 103.494 26.8412 102.715 27.1552C101.947 27.4577 101.144 27.6961 100.307 27.8706C99.4693 28.0451 98.6259 28.1614 97.7768 28.2195C96.9393 28.2777 96.1542 28.3068 95.4213 28.3068C94.7002 28.3068 93.9499 28.2777 93.1706 28.2195C92.4029 28.173 91.6351 28.0858 90.8674 27.9578C90.0997 27.8299 89.3437 27.6612 88.5992 27.4518C87.8548 27.2308 87.151 26.9575 86.488 26.6318L86.4531 4.15887C87.1045 3.89133 87.7966 3.65288 88.5294 3.4435C89.2622 3.22249 90.0067 3.0422 90.7627 2.90262C91.5305 2.7514 92.2924 2.6409 93.0484 2.57111C93.8045 2.48968 94.5373 2.44897 95.2469 2.44897C96.0727 2.44897 96.9044 2.50131 97.7419 2.606C98.591 2.71069 99.4053 2.88517 100.185 3.12944C100.964 3.37371 101.691 3.69359 102.366 4.08907C103.04 4.47293 103.628 4.94984 104.128 5.5198C104.64 6.08977 105.035 6.75279 105.314 7.50887C105.605 8.26494 105.751 9.13734 105.751 10.1261C105.751 10.7774 105.657 11.3881 105.471 11.9581C105.285 12.5281 105.018 13.0399 104.669 13.4935C104.32 13.9471 103.895 14.3368 103.395 14.6625C102.895 14.9766 102.331 15.2092 101.703 15.3604C102.459 15.5582 103.145 15.849 103.761 16.2328C104.39 16.6167 104.919 17.082 105.349 17.6287C105.791 18.1754 106.129 18.7919 106.361 19.4781C106.605 20.1644 106.728 20.8972 106.728 21.6766ZM97.8641 11.7313C97.8641 11.3939 97.7943 11.109 97.6547 10.8763C97.5151 10.632 97.3406 10.4343 97.1312 10.2831C96.9335 10.1319 96.7125 10.0214 96.4682 9.95157C96.2356 9.88178 96.0262 9.84689 95.8401 9.84689C95.6075 9.84689 95.3806 9.88178 95.1596 9.95157C94.9386 10.0214 94.7234 10.1028 94.5141 10.1958L94.4094 14.0693C94.6769 14.0693 95.0084 14.046 95.4039 13.9995C95.7994 13.953 96.1774 13.8541 96.538 13.7029C96.9102 13.54 97.2243 13.3074 97.4802 13.005C97.7361 12.6909 97.8641 12.2663 97.8641 11.7313ZM95.3864 17.4193C95.0491 17.4193 94.7234 17.4542 94.4094 17.524L94.3396 21.5021C94.514 21.537 94.6827 21.5719 94.8456 21.6068C95.02 21.63 95.1887 21.6417 95.3515 21.6417C95.5958 21.6417 95.8633 21.6184 96.1542 21.5719C96.445 21.5137 96.7183 21.409 96.9742 21.2578C97.2301 21.095 97.4395 20.8798 97.6023 20.6123C97.7768 20.3447 97.8641 19.9899 97.8641 19.5479C97.8641 19.1059 97.7768 18.7453 97.6023 18.4662C97.4395 18.187 97.2359 17.9718 96.9917 17.8206C96.7474 17.6577 96.4799 17.5531 96.189 17.5065C95.8982 17.4484 95.6307 17.4193 95.3864 17.4193Z"/>
<path d="M128.119 11.0682C128.119 11.9755 128.037 12.8014 127.874 13.5458C127.723 14.2787 127.479 14.9533 127.142 15.5698C126.804 16.1863 126.368 16.7563 125.833 17.2797C125.298 17.8031 124.652 18.3033 123.896 18.7802L128.049 26.1781L120.197 27.7136L117.51 20.2807L115.347 20.3505L115.033 27.6089H107.53C107.588 24.9568 107.641 22.3163 107.687 19.6875C107.745 17.0587 107.809 14.4182 107.879 11.7662C107.902 10.4285 107.926 9.10244 107.949 7.78803C107.972 6.47362 108.019 5.14758 108.089 3.80991C108.903 3.50748 109.705 3.25739 110.496 3.05965C111.287 2.8619 112.078 2.71069 112.869 2.606C113.672 2.48968 114.48 2.41407 115.295 2.37918C116.12 2.33265 116.964 2.30939 117.824 2.30939C119.151 2.30939 120.43 2.4955 121.663 2.86772C122.908 3.22831 124.007 3.77501 124.961 4.50782C125.914 5.24064 126.676 6.15374 127.246 7.24715C127.828 8.34055 128.119 9.61425 128.119 11.0682ZM120.302 11.6266C120.302 11.138 120.232 10.6902 120.093 10.2831C119.965 9.87597 119.767 9.52701 119.499 9.23621C119.244 8.93378 118.918 8.70114 118.522 8.53829C118.139 8.36381 117.685 8.27657 117.161 8.27657C116.929 8.27657 116.702 8.29402 116.481 8.32892C116.26 8.35218 116.045 8.39289 115.835 8.45105L115.556 14.9417H115.975C116.475 14.9417 116.981 14.8777 117.493 14.7498C118.016 14.6218 118.482 14.4241 118.889 14.1565C119.308 13.889 119.645 13.5458 119.901 13.1271C120.168 12.7083 120.302 12.2082 120.302 11.6266Z"/>
<path d="M150.208 8.48595C150.208 9.34671 150.167 10.2947 150.086 11.33C150.004 12.3652 149.87 13.4353 149.684 14.5404C149.498 15.6454 149.254 16.7679 148.952 17.9078C148.661 19.0361 148.294 20.1237 147.852 21.1706C147.41 22.2175 146.893 23.2004 146.299 24.1193C145.718 25.0266 145.043 25.8234 144.276 26.5096C143.519 27.1843 142.67 27.7136 141.728 28.0974C140.786 28.4929 139.739 28.6906 138.587 28.6906C137.238 28.6906 136.063 28.4696 135.063 28.0276C134.074 27.5972 133.225 27.0156 132.516 26.2828C131.806 25.5384 131.224 24.6776 130.771 23.7005C130.317 22.7118 129.962 21.6708 129.706 20.5774C129.451 19.4723 129.27 18.3498 129.166 17.2099C129.073 16.0583 129.026 14.9533 129.026 13.8948C129.026 12.2663 129.107 10.6437 129.27 9.02683C129.433 7.39836 129.666 5.77571 129.968 4.15887L138.134 4.47293C137.82 6.29914 137.546 8.13699 137.314 9.98647C137.093 11.8243 136.982 13.6738 136.982 15.5349C136.982 15.7327 136.988 16.0293 137 16.4248C137.023 16.8086 137.058 17.2448 137.104 17.7333C137.151 18.2103 137.215 18.7046 137.296 19.2164C137.389 19.7166 137.512 20.1761 137.663 20.5948C137.814 21.0136 137.994 21.3567 138.204 21.6242C138.425 21.8918 138.681 22.0255 138.971 22.0255C139.309 22.0255 139.611 21.8685 139.879 21.5544C140.146 21.2287 140.379 20.7984 140.577 20.2633C140.786 19.7282 140.966 19.1117 141.117 18.4138C141.269 17.7159 141.397 16.9889 141.501 16.2328C141.606 15.4767 141.687 14.7207 141.746 13.9646C141.815 13.2085 141.868 12.5048 141.903 11.8534C141.949 11.202 141.978 10.6262 141.99 10.1261C142.001 9.62588 142.007 9.25366 142.007 9.00939C142.007 8.1021 141.99 7.20062 141.955 6.30496C141.932 5.39767 141.891 4.49619 141.833 3.60053H149.998C150.138 5.20574 150.208 6.83421 150.208 8.48595Z"/>
<path d="M172.314 27.888L163.59 28.3068L163.521 20.2458H159.508L159.263 27.888H151.447L152.11 3.35626L160.415 3.74012L159.891 16.2677H163.765L163.8 2.79793L171.756 3.0073L172.314 27.888Z"/>
</mask>
<path d="M20.6221 3.35626L19.645 10.7193C19.3077 10.6262 18.9704 10.5623 18.6331 10.5274C18.2957 10.4925 17.9584 10.475 17.6211 10.475C16.7603 10.475 15.9403 10.5913 15.1609 10.824C14.3816 11.045 13.6895 11.3881 13.0846 11.8534C12.4914 12.3187 12.0145 12.9003 11.6539 13.5982C11.3049 14.2961 11.1305 15.1162 11.1305 16.0583C11.1305 16.6632 11.2235 17.1866 11.4096 17.6287C11.6074 18.0707 11.8807 18.4371 12.2297 18.7279C12.5786 19.0187 12.9916 19.2339 13.4685 19.3734C13.9454 19.513 14.4688 19.5828 15.0388 19.5828C15.4692 19.5828 15.917 19.5363 16.3823 19.4432C16.8476 19.3502 17.307 19.2281 17.7607 19.0768C18.2143 18.9256 18.6563 18.7511 19.0867 18.5534C19.5171 18.3557 19.9126 18.1521 20.2732 17.9427L19.5753 26.1432C19.1216 26.3759 18.6272 26.5853 18.0922 26.7714C17.5687 26.9458 17.0279 27.1029 16.4695 27.2425C15.9112 27.3704 15.3529 27.4693 14.7945 27.5391C14.2362 27.6089 13.7011 27.6438 13.1893 27.6438C11.7121 27.6438 10.3337 27.3704 9.05416 26.8237C7.77464 26.277 6.66379 25.5267 5.72161 24.5729C4.77942 23.6191 4.03497 22.4966 3.48827 21.2055C2.9532 19.9027 2.68567 18.5011 2.68567 17.0005C2.68567 15.0115 2.97065 13.1387 3.54062 11.3823C4.11058 9.61425 4.94808 8.0672 6.05312 6.74116C7.15815 5.41512 8.52491 4.36824 10.1534 3.60053C11.7935 2.83282 13.6779 2.44897 15.8065 2.44897C16.6091 2.44897 17.4292 2.51295 18.2667 2.6409C19.1158 2.76885 19.9009 3.0073 20.6221 3.35626Z" fill="url(#paint0_linear_1046_97)"/>
<path d="M43.7232 26.3875L35.069 27.5042L34.0221 23.5609H30.044L29.1716 27.5042L20.2732 26.6318L27.2174 3.39116L36.9185 2.90262L43.7232 26.3875ZM33.394 18.2219L32.068 12.15L30.7768 18.2219H33.394Z" fill="url(#paint1_linear_1046_97)"/>
<path d="M63.8581 14.0344C63.8581 15.6629 63.6487 17.1343 63.2299 18.4487C62.8112 19.7515 62.2238 20.9147 61.4677 21.9383C60.7233 22.9503 59.8334 23.8227 58.7982 24.5555C57.7629 25.2883 56.6288 25.8932 55.3958 26.3701C54.1628 26.8353 52.8484 27.1843 51.4526 27.4169C50.0684 27.6379 48.6435 27.7484 47.1779 27.7484C46.6312 27.7484 46.0961 27.7368 45.5726 27.7136C45.0492 27.6787 44.5141 27.6321 43.9674 27.574L44.456 4.15887C45.7355 3.75175 47.0499 3.46677 48.3992 3.30392C49.7601 3.12944 51.1095 3.0422 52.4471 3.0422C54.1105 3.0422 55.6401 3.29229 57.0359 3.79246C58.4318 4.29263 59.6357 5.01381 60.6476 5.956C61.6596 6.89819 62.4448 8.04975 63.0031 9.41069C63.5731 10.7716 63.8581 12.3129 63.8581 14.0344ZM56.7044 15.1511C56.716 14.5229 56.6463 13.9181 56.495 13.3365C56.3555 12.7549 56.117 12.2431 55.7797 11.8011C55.454 11.3474 55.0352 10.9868 54.5234 10.7193C54.0116 10.4401 53.4009 10.2889 52.6914 10.2656L51.9935 21.0833C52.6914 20.9787 53.3253 20.7518 53.8953 20.4029C54.4653 20.0423 54.9538 19.6061 55.3609 19.0943C55.7797 18.5708 56.0996 17.9951 56.3206 17.3669C56.5532 16.7272 56.6812 16.07 56.7044 15.3953V15.1511Z" fill="url(#paint2_linear_1046_97)"/>
<path d="M86.0518 26.3875L77.3977 27.5042L76.3508 23.5609H72.3727L71.5003 27.5042L62.6018 26.6318L69.5461 3.39116L79.2471 2.90262L86.0518 26.3875ZM75.7226 18.2219L74.3966 12.15L73.1055 18.2219H75.7226Z" fill="url(#paint3_linear_1046_97)"/>
<path d="M106.728 21.6766C106.728 22.642 106.547 23.4737 106.187 24.1716C105.838 24.8695 105.367 25.4628 104.773 25.9513C104.18 26.4399 103.494 26.8412 102.715 27.1552C101.947 27.4577 101.144 27.6961 100.307 27.8706C99.4693 28.0451 98.6259 28.1614 97.7768 28.2195C96.9393 28.2777 96.1542 28.3068 95.4213 28.3068C94.7002 28.3068 93.9499 28.2777 93.1706 28.2195C92.4029 28.173 91.6351 28.0858 90.8674 27.9578C90.0997 27.8299 89.3437 27.6612 88.5992 27.4518C87.8548 27.2308 87.151 26.9575 86.488 26.6318L86.4531 4.15887C87.1045 3.89133 87.7966 3.65288 88.5294 3.4435C89.2622 3.22249 90.0067 3.0422 90.7627 2.90262C91.5305 2.7514 92.2924 2.6409 93.0484 2.57111C93.8045 2.48968 94.5373 2.44897 95.2469 2.44897C96.0727 2.44897 96.9044 2.50131 97.7419 2.606C98.591 2.71069 99.4053 2.88517 100.185 3.12944C100.964 3.37371 101.691 3.69359 102.366 4.08907C103.04 4.47293 103.628 4.94984 104.128 5.5198C104.64 6.08977 105.035 6.75279 105.314 7.50887C105.605 8.26494 105.751 9.13734 105.751 10.1261C105.751 10.7774 105.657 11.3881 105.471 11.9581C105.285 12.5281 105.018 13.0399 104.669 13.4935C104.32 13.9471 103.895 14.3368 103.395 14.6625C102.895 14.9766 102.331 15.2092 101.703 15.3604C102.459 15.5582 103.145 15.849 103.761 16.2328C104.39 16.6167 104.919 17.082 105.349 17.6287C105.791 18.1754 106.129 18.7919 106.361 19.4781C106.605 20.1644 106.728 20.8972 106.728 21.6766ZM97.8641 11.7313C97.8641 11.3939 97.7943 11.109 97.6547 10.8763C97.5151 10.632 97.3406 10.4343 97.1312 10.2831C96.9335 10.1319 96.7125 10.0214 96.4682 9.95157C96.2356 9.88178 96.0262 9.84689 95.8401 9.84689C95.6075 9.84689 95.3806 9.88178 95.1596 9.95157C94.9386 10.0214 94.7234 10.1028 94.5141 10.1958L94.4094 14.0693C94.6769 14.0693 95.0084 14.046 95.4039 13.9995C95.7994 13.953 96.1774 13.8541 96.538 13.7029C96.9102 13.54 97.2243 13.3074 97.4802 13.005C97.7361 12.6909 97.8641 12.2663 97.8641 11.7313ZM95.3864 17.4193C95.0491 17.4193 94.7234 17.4542 94.4094 17.524L94.3396 21.5021C94.514 21.537 94.6827 21.5719 94.8456 21.6068C95.02 21.63 95.1887 21.6417 95.3515 21.6417C95.5958 21.6417 95.8633 21.6184 96.1542 21.5719C96.445 21.5137 96.7183 21.409 96.9742 21.2578C97.2301 21.095 97.4395 20.8798 97.6023 20.6123C97.7768 20.3447 97.8641 19.9899 97.8641 19.5479C97.8641 19.1059 97.7768 18.7453 97.6023 18.4662C97.4395 18.187 97.2359 17.9718 96.9917 17.8206C96.7474 17.6577 96.4799 17.5531 96.189 17.5065C95.8982 17.4484 95.6307 17.4193 95.3864 17.4193Z" fill="url(#paint4_linear_1046_97)"/>
<path d="M128.119 11.0682C128.119 11.9755 128.037 12.8014 127.874 13.5458C127.723 14.2787 127.479 14.9533 127.142 15.5698C126.804 16.1863 126.368 16.7563 125.833 17.2797C125.298 17.8031 124.652 18.3033 123.896 18.7802L128.049 26.1781L120.197 27.7136L117.51 20.2807L115.347 20.3505L115.033 27.6089H107.53C107.588 24.9568 107.641 22.3163 107.687 19.6875C107.745 17.0587 107.809 14.4182 107.879 11.7662C107.902 10.4285 107.926 9.10244 107.949 7.78803C107.972 6.47362 108.019 5.14758 108.089 3.80991C108.903 3.50748 109.705 3.25739 110.496 3.05965C111.287 2.8619 112.078 2.71069 112.869 2.606C113.672 2.48968 114.48 2.41407 115.295 2.37918C116.12 2.33265 116.964 2.30939 117.824 2.30939C119.151 2.30939 120.43 2.4955 121.663 2.86772C122.908 3.22831 124.007 3.77501 124.961 4.50782C125.914 5.24064 126.676 6.15374 127.246 7.24715C127.828 8.34055 128.119 9.61425 128.119 11.0682ZM120.302 11.6266C120.302 11.138 120.232 10.6902 120.093 10.2831C119.965 9.87597 119.767 9.52701 119.499 9.23621C119.244 8.93378 118.918 8.70114 118.522 8.53829C118.139 8.36381 117.685 8.27657 117.161 8.27657C116.929 8.27657 116.702 8.29402 116.481 8.32892C116.26 8.35218 116.045 8.39289 115.835 8.45105L115.556 14.9417H115.975C116.475 14.9417 116.981 14.8777 117.493 14.7498C118.016 14.6218 118.482 14.4241 118.889 14.1565C119.308 13.889 119.645 13.5458 119.901 13.1271C120.168 12.7083 120.302 12.2082 120.302 11.6266Z" fill="url(#paint5_linear_1046_97)"/>
<path d="M150.208 8.48595C150.208 9.34671 150.167 10.2947 150.086 11.33C150.004 12.3652 149.87 13.4353 149.684 14.5404C149.498 15.6454 149.254 16.7679 148.952 17.9078C148.661 19.0361 148.294 20.1237 147.852 21.1706C147.41 22.2175 146.893 23.2004 146.299 24.1193C145.718 25.0266 145.043 25.8234 144.276 26.5096C143.519 27.1843 142.67 27.7136 141.728 28.0974C140.786 28.4929 139.739 28.6906 138.587 28.6906C137.238 28.6906 136.063 28.4696 135.063 28.0276C134.074 27.5972 133.225 27.0156 132.516 26.2828C131.806 25.5384 131.224 24.6776 130.771 23.7005C130.317 22.7118 129.962 21.6708 129.706 20.5774C129.451 19.4723 129.27 18.3498 129.166 17.2099C129.073 16.0583 129.026 14.9533 129.026 13.8948C129.026 12.2663 129.107 10.6437 129.27 9.02683C129.433 7.39836 129.666 5.77571 129.968 4.15887L138.134 4.47293C137.82 6.29914 137.546 8.13699 137.314 9.98647C137.093 11.8243 136.982 13.6738 136.982 15.5349C136.982 15.7327 136.988 16.0293 137 16.4248C137.023 16.8086 137.058 17.2448 137.104 17.7333C137.151 18.2103 137.215 18.7046 137.296 19.2164C137.389 19.7166 137.512 20.1761 137.663 20.5948C137.814 21.0136 137.994 21.3567 138.204 21.6242C138.425 21.8918 138.681 22.0255 138.971 22.0255C139.309 22.0255 139.611 21.8685 139.879 21.5544C140.146 21.2287 140.379 20.7984 140.577 20.2633C140.786 19.7282 140.966 19.1117 141.117 18.4138C141.269 17.7159 141.397 16.9889 141.501 16.2328C141.606 15.4767 141.687 14.7207 141.746 13.9646C141.815 13.2085 141.868 12.5048 141.903 11.8534C141.949 11.202 141.978 10.6262 141.99 10.1261C142.001 9.62588 142.007 9.25366 142.007 9.00939C142.007 8.1021 141.99 7.20062 141.955 6.30496C141.932 5.39767 141.891 4.49619 141.833 3.60053H149.998C150.138 5.20574 150.208 6.83421 150.208 8.48595Z" fill="url(#paint6_linear_1046_97)"/>
<path d="M172.314 27.888L163.59 28.3068L163.521 20.2458H159.508L159.263 27.888H151.447L152.11 3.35626L160.415 3.74012L159.891 16.2677H163.765L163.8 2.79793L171.756 3.0073L172.314 27.888Z" fill="url(#paint7_linear_1046_97)"/>
<path d="M20.6221 3.35626L19.645 10.7193C19.3077 10.6262 18.9704 10.5623 18.6331 10.5274C18.2957 10.4925 17.9584 10.475 17.6211 10.475C16.7603 10.475 15.9403 10.5913 15.1609 10.824C14.3816 11.045 13.6895 11.3881 13.0846 11.8534C12.4914 12.3187 12.0145 12.9003 11.6539 13.5982C11.3049 14.2961 11.1305 15.1162 11.1305 16.0583C11.1305 16.6632 11.2235 17.1866 11.4096 17.6287C11.6074 18.0707 11.8807 18.4371 12.2297 18.7279C12.5786 19.0187 12.9916 19.2339 13.4685 19.3734C13.9454 19.513 14.4688 19.5828 15.0388 19.5828C15.4692 19.5828 15.917 19.5363 16.3823 19.4432C16.8476 19.3502 17.307 19.2281 17.7607 19.0768C18.2143 18.9256 18.6563 18.7511 19.0867 18.5534C19.5171 18.3557 19.9126 18.1521 20.2732 17.9427L19.5753 26.1432C19.1216 26.3759 18.6272 26.5853 18.0922 26.7714C17.5687 26.9458 17.0279 27.1029 16.4695 27.2425C15.9112 27.3704 15.3529 27.4693 14.7945 27.5391C14.2362 27.6089 13.7011 27.6438 13.1893 27.6438C11.7121 27.6438 10.3337 27.3704 9.05416 26.8237C7.77464 26.277 6.66379 25.5267 5.72161 24.5729C4.77942 23.6191 4.03497 22.4966 3.48827 21.2055C2.9532 19.9027 2.68567 18.5011 2.68567 17.0005C2.68567 15.0115 2.97065 13.1387 3.54062 11.3823C4.11058 9.61425 4.94808 8.0672 6.05312 6.74116C7.15815 5.41512 8.52491 4.36824 10.1534 3.60053C11.7935 2.83282 13.6779 2.44897 15.8065 2.44897C16.6091 2.44897 17.4292 2.51295 18.2667 2.6409C19.1158 2.76885 19.9009 3.0073 20.6221 3.35626Z" stroke="black" stroke-width="4" mask="url(#path-1-outside-1_1046_97)"/>
<path d="M43.7232 26.3875L35.069 27.5042L34.0221 23.5609H30.044L29.1716 27.5042L20.2732 26.6318L27.2174 3.39116L36.9185 2.90262L43.7232 26.3875ZM33.394 18.2219L32.068 12.15L30.7768 18.2219H33.394Z" stroke="black" stroke-width="4" mask="url(#path-1-outside-1_1046_97)"/>
<path d="M63.8581 14.0344C63.8581 15.6629 63.6487 17.1343 63.2299 18.4487C62.8112 19.7515 62.2238 20.9147 61.4677 21.9383C60.7233 22.9503 59.8334 23.8227 58.7982 24.5555C57.7629 25.2883 56.6288 25.8932 55.3958 26.3701C54.1628 26.8353 52.8484 27.1843 51.4526 27.4169C50.0684 27.6379 48.6435 27.7484 47.1779 27.7484C46.6312 27.7484 46.0961 27.7368 45.5726 27.7136C45.0492 27.6787 44.5141 27.6321 43.9674 27.574L44.456 4.15887C45.7355 3.75175 47.0499 3.46677 48.3992 3.30392C49.7601 3.12944 51.1095 3.0422 52.4471 3.0422C54.1105 3.0422 55.6401 3.29229 57.0359 3.79246C58.4318 4.29263 59.6357 5.01381 60.6476 5.956C61.6596 6.89819 62.4448 8.04975 63.0031 9.41069C63.5731 10.7716 63.8581 12.3129 63.8581 14.0344ZM56.7044 15.1511C56.716 14.5229 56.6463 13.9181 56.495 13.3365C56.3555 12.7549 56.117 12.2431 55.7797 11.8011C55.454 11.3474 55.0352 10.9868 54.5234 10.7193C54.0116 10.4401 53.4009 10.2889 52.6914 10.2656L51.9935 21.0833C52.6914 20.9787 53.3253 20.7518 53.8953 20.4029C54.4653 20.0423 54.9538 19.6061 55.3609 19.0943C55.7797 18.5708 56.0996 17.9951 56.3206 17.3669C56.5532 16.7272 56.6812 16.07 56.7044 15.3953V15.1511Z" stroke="black" stroke-width="4" mask="url(#path-1-outside-1_1046_97)"/>
<path d="M86.0518 26.3875L77.3977 27.5042L76.3508 23.5609H72.3727L71.5003 27.5042L62.6018 26.6318L69.5461 3.39116L79.2471 2.90262L86.0518 26.3875ZM75.7226 18.2219L74.3966 12.15L73.1055 18.2219H75.7226Z" stroke="black" stroke-width="4" mask="url(#path-1-outside-1_1046_97)"/>
<path d="M106.728 21.6766C106.728 22.642 106.547 23.4737 106.187 24.1716C105.838 24.8695 105.367 25.4628 104.773 25.9513C104.18 26.4399 103.494 26.8412 102.715 27.1552C101.947 27.4577 101.144 27.6961 100.307 27.8706C99.4693 28.0451 98.6259 28.1614 97.7768 28.2195C96.9393 28.2777 96.1542 28.3068 95.4213 28.3068C94.7002 28.3068 93.9499 28.2777 93.1706 28.2195C92.4029 28.173 91.6351 28.0858 90.8674 27.9578C90.0997 27.8299 89.3437 27.6612 88.5992 27.4518C87.8548 27.2308 87.151 26.9575 86.488 26.6318L86.4531 4.15887C87.1045 3.89133 87.7966 3.65288 88.5294 3.4435C89.2622 3.22249 90.0067 3.0422 90.7627 2.90262C91.5305 2.7514 92.2924 2.6409 93.0484 2.57111C93.8045 2.48968 94.5373 2.44897 95.2469 2.44897C96.0727 2.44897 96.9044 2.50131 97.7419 2.606C98.591 2.71069 99.4053 2.88517 100.185 3.12944C100.964 3.37371 101.691 3.69359 102.366 4.08907C103.04 4.47293 103.628 4.94984 104.128 5.5198C104.64 6.08977 105.035 6.75279 105.314 7.50887C105.605 8.26494 105.751 9.13734 105.751 10.1261C105.751 10.7774 105.657 11.3881 105.471 11.9581C105.285 12.5281 105.018 13.0399 104.669 13.4935C104.32 13.9471 103.895 14.3368 103.395 14.6625C102.895 14.9766 102.331 15.2092 101.703 15.3604C102.459 15.5582 103.145 15.849 103.761 16.2328C104.39 16.6167 104.919 17.082 105.349 17.6287C105.791 18.1754 106.129 18.7919 106.361 19.4781C106.605 20.1644 106.728 20.8972 106.728 21.6766ZM97.8641 11.7313C97.8641 11.3939 97.7943 11.109 97.6547 10.8763C97.5151 10.632 97.3406 10.4343 97.1312 10.2831C96.9335 10.1319 96.7125 10.0214 96.4682 9.95157C96.2356 9.88178 96.0262 9.84689 95.8401 9.84689C95.6075 9.84689 95.3806 9.88178 95.1596 9.95157C94.9386 10.0214 94.7234 10.1028 94.5141 10.1958L94.4094 14.0693C94.6769 14.0693 95.0084 14.046 95.4039 13.9995C95.7994 13.953 96.1774 13.8541 96.538 13.7029C96.9102 13.54 97.2243 13.3074 97.4802 13.005C97.7361 12.6909 97.8641 12.2663 97.8641 11.7313ZM95.3864 17.4193C95.0491 17.4193 94.7234 17.4542 94.4094 17.524L94.3396 21.5021C94.514 21.537 94.6827 21.5719 94.8456 21.6068C95.02 21.63 95.1887 21.6417 95.3515 21.6417C95.5958 21.6417 95.8633 21.6184 96.1542 21.5719C96.445 21.5137 96.7183 21.409 96.9742 21.2578C97.2301 21.095 97.4395 20.8798 97.6023 20.6123C97.7768 20.3447 97.8641 19.9899 97.8641 19.5479C97.8641 19.1059 97.7768 18.7453 97.6023 18.4662C97.4395 18.187 97.2359 17.9718 96.9917 17.8206C96.7474 17.6577 96.4799 17.5531 96.189 17.5065C95.8982 17.4484 95.6307 17.4193 95.3864 17.4193Z" stroke="black" stroke-width="4" mask="url(#path-1-outside-1_1046_97)"/>
<path d="M128.119 11.0682C128.119 11.9755 128.037 12.8014 127.874 13.5458C127.723 14.2787 127.479 14.9533 127.142 15.5698C126.804 16.1863 126.368 16.7563 125.833 17.2797C125.298 17.8031 124.652 18.3033 123.896 18.7802L128.049 26.1781L120.197 27.7136L117.51 20.2807L115.347 20.3505L115.033 27.6089H107.53C107.588 24.9568 107.641 22.3163 107.687 19.6875C107.745 17.0587 107.809 14.4182 107.879 11.7662C107.902 10.4285 107.926 9.10244 107.949 7.78803C107.972 6.47362 108.019 5.14758 108.089 3.80991C108.903 3.50748 109.705 3.25739 110.496 3.05965C111.287 2.8619 112.078 2.71069 112.869 2.606C113.672 2.48968 114.48 2.41407 115.295 2.37918C116.12 2.33265 116.964 2.30939 117.824 2.30939C119.151 2.30939 120.43 2.4955 121.663 2.86772C122.908 3.22831 124.007 3.77501 124.961 4.50782C125.914 5.24064 126.676 6.15374 127.246 7.24715C127.828 8.34055 128.119 9.61425 128.119 11.0682ZM120.302 11.6266C120.302 11.138 120.232 10.6902 120.093 10.2831C119.965 9.87597 119.767 9.52701 119.499 9.23621C119.244 8.93378 118.918 8.70114 118.522 8.53829C118.139 8.36381 117.685 8.27657 117.161 8.27657C116.929 8.27657 116.702 8.29402 116.481 8.32892C116.26 8.35218 116.045 8.39289 115.835 8.45105L115.556 14.9417H115.975C116.475 14.9417 116.981 14.8777 117.493 14.7498C118.016 14.6218 118.482 14.4241 118.889 14.1565C119.308 13.889 119.645 13.5458 119.901 13.1271C120.168 12.7083 120.302 12.2082 120.302 11.6266Z" stroke="black" stroke-width="4" mask="url(#path-1-outside-1_1046_97)"/>
<path d="M150.208 8.48595C150.208 9.34671 150.167 10.2947 150.086 11.33C150.004 12.3652 149.87 13.4353 149.684 14.5404C149.498 15.6454 149.254 16.7679 148.952 17.9078C148.661 19.0361 148.294 20.1237 147.852 21.1706C147.41 22.2175 146.893 23.2004 146.299 24.1193C145.718 25.0266 145.043 25.8234 144.276 26.5096C143.519 27.1843 142.67 27.7136 141.728 28.0974C140.786 28.4929 139.739 28.6906 138.587 28.6906C137.238 28.6906 136.063 28.4696 135.063 28.0276C134.074 27.5972 133.225 27.0156 132.516 26.2828C131.806 25.5384 131.224 24.6776 130.771 23.7005C130.317 22.7118 129.962 21.6708 129.706 20.5774C129.451 19.4723 129.27 18.3498 129.166 17.2099C129.073 16.0583 129.026 14.9533 129.026 13.8948C129.026 12.2663 129.107 10.6437 129.27 9.02683C129.433 7.39836 129.666 5.77571 129.968 4.15887L138.134 4.47293C137.82 6.29914 137.546 8.13699 137.314 9.98647C137.093 11.8243 136.982 13.6738 136.982 15.5349C136.982 15.7327 136.988 16.0293 137 16.4248C137.023 16.8086 137.058 17.2448 137.104 17.7333C137.151 18.2103 137.215 18.7046 137.296 19.2164C137.389 19.7166 137.512 20.1761 137.663 20.5948C137.814 21.0136 137.994 21.3567 138.204 21.6242C138.425 21.8918 138.681 22.0255 138.971 22.0255C139.309 22.0255 139.611 21.8685 139.879 21.5544C140.146 21.2287 140.379 20.7984 140.577 20.2633C140.786 19.7282 140.966 19.1117 141.117 18.4138C141.269 17.7159 141.397 16.9889 141.501 16.2328C141.606 15.4767 141.687 14.7207 141.746 13.9646C141.815 13.2085 141.868 12.5048 141.903 11.8534C141.949 11.202 141.978 10.6262 141.99 10.1261C142.001 9.62588 142.007 9.25366 142.007 9.00939C142.007 8.1021 141.99 7.20062 141.955 6.30496C141.932 5.39767 141.891 4.49619 141.833 3.60053H149.998C150.138 5.20574 150.208 6.83421 150.208 8.48595Z" stroke="black" stroke-width="4" mask="url(#path-1-outside-1_1046_97)"/>
<path d="M172.314 27.888L163.59 28.3068L163.521 20.2458H159.508L159.263 27.888H151.447L152.11 3.35626L160.415 3.74012L159.891 16.2677H163.765L163.8 2.79793L171.756 3.0073L172.314 27.888Z" stroke="black" stroke-width="4" mask="url(#path-1-outside-1_1046_97)"/>
<defs>
<linearGradient id="paint0_linear_1046_97" x1="87.5" y1="2.30939" x2="87.5" y2="28.6906" gradientUnits="userSpaceOnUse">
<stop stop-color="#FFA322"/>
<stop offset="1" stop-color="#ED0000"/>
</linearGradient>
<linearGradient id="paint1_linear_1046_97" x1="87.5" y1="2.30939" x2="87.5" y2="28.6906" gradientUnits="userSpaceOnUse">
<stop stop-color="#FFA322"/>
<stop offset="1" stop-color="#ED0000"/>
</linearGradient>
<linearGradient id="paint2_linear_1046_97" x1="87.5" y1="2.30939" x2="87.5" y2="28.6906" gradientUnits="userSpaceOnUse">
<stop stop-color="#FFA322"/>
<stop offset="1" stop-color="#ED0000"/>
</linearGradient>
<linearGradient id="paint3_linear_1046_97" x1="87.5" y1="2.30939" x2="87.5" y2="28.6906" gradientUnits="userSpaceOnUse">
<stop stop-color="#FFA322"/>
<stop offset="1" stop-color="#ED0000"/>
</linearGradient>
<linearGradient id="paint4_linear_1046_97" x1="87.5" y1="2.30939" x2="87.5" y2="28.6906" gradientUnits="userSpaceOnUse">
<stop stop-color="#FFA322"/>
<stop offset="1" stop-color="#ED0000"/>
</linearGradient>
<linearGradient id="paint5_linear_1046_97" x1="87.5" y1="2.30939" x2="87.5" y2="28.6906" gradientUnits="userSpaceOnUse">
<stop stop-color="#FFA322"/>
<stop offset="1" stop-color="#ED0000"/>
</linearGradient>
<linearGradient id="paint6_linear_1046_97" x1="87.5" y1="2.30939" x2="87.5" y2="28.6906" gradientUnits="userSpaceOnUse">
<stop stop-color="#FFA322"/>
<stop offset="1" stop-color="#ED0000"/>
</linearGradient>
<linearGradient id="paint7_linear_1046_97" x1="87.5" y1="2.30939" x2="87.5" y2="28.6906" gradientUnits="userSpaceOnUse">
<stop stop-color="#FFA322"/>
<stop offset="1" stop-color="#ED0000"/>
</linearGradient>
</defs>
</svg>
